<?xml version="1.0" encoding="UTF-8" standalone="no"?>
<!-- Generator: Adobe Illustrator 26.3.1, SVG Export Plug-In . SVG Version: 6.00 Build 0)  -->

<svg
   version="1.1"
   id="Слой_1"
   x="0px"
   y="0px"
   viewBox="0 0 722.29999 896.09998"
   xml:space="preserve"
   sodipodi:docname="white.svg"
   width="722.29999"
   height="896.09998"
   inkscape:version="1.1.1 (3bf5ae0d25, 2021-09-20)"
   xmlns:inkscape="http://www.inkscape.org/namespaces/inkscape"
   xmlns:sodipodi="http://sodipodi.sourceforge.net/DTD/sodipodi-0.dtd"
   xmlns="http://www.w3.org/2000/svg"
   xmlns:svg="http://www.w3.org/2000/svg"><defs
   id="defs9" /><sodipodi:namedview
   id="namedview7"
   pagecolor="#ffffff"
   bordercolor="#666666"
   borderopacity="1.0"
   inkscape:pageshadow="2"
   inkscape:pageopacity="0.0"
   inkscape:pagecheckerboard="0"
   showgrid="false"
   inkscape:zoom="0.44259259"
   inkscape:cx="494.81172"
   inkscape:cy="540"
   inkscape:window-width="1280"
   inkscape:window-height="971"
   inkscape:window-x="-8"
   inkscape:window-y="22"
   inkscape:window-maximized="1"
   inkscape:current-layer="Слой_1" />
<style
   type="text/css"
   id="style2">
	.st0{fill:#FFFFFF;}
</style>
<path
   class="st0"
   d="M 709.8,139.3 C 701.5,127.6 691,119.2 678.2,113.9 L 384.8,4.5 C 376.5,1.5 368.6,0 361.1,0 353.6,0 345.7,1.5 337.4,4.5 L 44,114 C 31.2,119.3 20.7,127.7 12.4,139.4 4.1,151.1 0,164 0,178.3 v 221.2 c 0,112.1 32.4,215 97.1,308.7 64.7,93.7 147.5,155.6 248.3,185.6 2.3,0.8 4.7,1.3 7.3,1.7 2.6,0.4 5.5,0.6 8.5,0.6 l 15.8,-2.2 c 100.8,-30.1 183.6,-92 248.3,-185.6 64.7,-93.6 97,-196.6 97,-308.7 V 178.3 C 722.2,164 718.1,151 709.8,139.3 Z M 544,411.8 278.8,815.1 c -13.9,21.1 -18.4,18.9 -10,-5 L 371,518.6 c 8.4,-23.8 -5.3,-43.1 -30.6,-43.1 H 199.5 c -25.2,0 -35.1,-17.5 -22.1,-39.1 l 214.4,-355 c 13.1,-21.6 17.3,-19.7 9.5,4.4 l -79.6,244.5 c -7.8,24 6.3,43.4 31.6,43.4 h 170.1 c 25.3,0 34.5,17 20.6,38.1 z"
   id="path4" />
</svg>
