<svg width="35" height="62" viewBox="0 0 35 62" fill="none" xmlns="http://www.w3.org/2000/svg">
<path d="M5.56075 0.890343L34.264 29.3003C34.5366 29.5701 34.7274 29.8399 34.8364 30.1097C34.9455 30.3795 35 30.6762 35 31C35 31.3238 34.9455 31.6205 34.8364 31.8903C34.7274 32.1601 34.5366 32.4299 34.264 32.6997L5.56075 61.1097C4.96106 61.7032 4.19782 62 3.27103 62C2.34424 62 1.581 61.7032 0.981308 61.1097C0.327103 60.4621 0 59.6932 0 58.8029C0 57.9125 0.327103 57.1436 0.981308 56.4961L26.7407 31L0.981308 5.50392C0.327103 4.8564 0.0136299 4.08747 0.0408859 3.19713C0.0681458 2.30679 0.381622 1.56484 0.981308 0.971283C1.63552 0.323761 2.41238 0 3.31192 0C4.21145 0 4.96106 0.296783 5.56075 0.890343Z" fill="white"/>
</svg>
