<svg width="24" height="14" viewBox="0 0 24 14" fill="none" xmlns="http://www.w3.org/2000/svg">
<path d="M12 13.1501C11.8 13.1501 11.6167 13.1168 11.45 13.0501C11.2833 12.9834 11.1167 12.8668 10.95 12.7001L1.04999 2.80011C0.783327 2.53345 0.658327 2.17511 0.674994 1.72511C0.69166 1.27511 0.833327 0.916781 1.09999 0.650114C1.43333 0.316781 1.79166 0.175115 2.17499 0.225115C2.55833 0.275115 2.89999 0.433448 3.19999 0.700115L12 9.50011L20.8 0.700115C21.0667 0.433448 21.425 0.283448 21.875 0.250114C22.325 0.216781 22.6833 0.366782 22.95 0.700115C23.2833 0.966782 23.425 1.31678 23.375 1.75011C23.325 2.18345 23.1667 2.55011 22.9 2.85011L13.05 12.7001C12.8833 12.8668 12.7167 12.9834 12.55 13.0501C12.3833 13.1168 12.2 13.1501 12 13.1501Z" fill="white"/>
</svg>
