<svg width="35" height="62" viewBox="0 0 35 62" fill="none" xmlns="http://www.w3.org/2000/svg">
<path d="M29.4393 61.1097L0.735981 32.6997C0.463396 32.4299 0.272586 32.1601 0.163551 31.8903C0.0545171 31.6205 0 31.3238 0 31C0 30.6762 0.0545171 30.3795 0.163551 30.1097C0.272586 29.8399 0.463396 29.5701 0.735981 29.3003L29.4393 0.89034C30.0389 0.29678 30.8022 0 31.729 0C32.6558 0 33.419 0.29678 34.0187 0.89034C34.6729 1.53786 35 2.30679 35 3.19713C35 4.08747 34.6729 4.8564 34.0187 5.50392L8.25935 31L34.0187 56.4961C34.6729 57.1436 34.9864 57.9125 34.9591 58.8029C34.9319 59.6932 34.6184 60.4352 34.0187 61.0287C33.3645 61.6762 32.5876 62 31.6881 62C30.7886 62 30.0389 61.7032 29.4393 61.1097Z" fill="white"/>
</svg>
