<svg width="22" height="25" viewBox="0 0 22 25" fill="none" xmlns="http://www.w3.org/2000/svg">
<path d="M8.25 17.8125C8.06667 17.6042 7.975 17.3495 7.975 17.0486C7.975 16.7477 8.06667 16.5046 8.25 16.3194L10.6944 13.5417H0.916667C0.651852 13.5417 0.43287 13.4433 0.259722 13.2465C0.0865742 13.0498 0 12.8009 0 12.5C0 12.1991 0.0865742 11.9502 0.259722 11.7535C0.43287 11.5567 0.651852 11.4583 0.916667 11.4583H10.6333L8.15833 8.64583C7.99537 8.46065 7.91389 8.22338 7.91389 7.93403C7.91389 7.64468 8.00556 7.39583 8.18889 7.1875C8.37222 6.97917 8.5912 6.875 8.84583 6.875C9.10046 6.875 9.31944 6.97917 9.50278 7.1875L13.5667 11.8056C13.6685 11.9213 13.7398 12.037 13.7806 12.1528C13.8213 12.2685 13.8417 12.3958 13.8417 12.5347C13.8417 12.6736 13.8213 12.8009 13.7806 12.9167C13.7398 13.0324 13.6685 13.1481 13.5667 13.2639L9.53333 17.8472C9.37037 18.0324 9.16157 18.125 8.90695 18.125C8.65232 18.125 8.43333 18.0208 8.25 17.8125ZM12.1917 25C11.9269 25 11.7079 24.9016 11.5347 24.7049C11.3616 24.5081 11.275 24.2593 11.275 23.9583C11.275 23.6574 11.3616 23.4086 11.5347 23.2118C11.7079 23.015 11.9269 22.9167 12.1917 22.9167H20.1667V2.08333H12.1917C11.9269 2.08333 11.7079 1.98495 11.5347 1.78819C11.3616 1.59143 11.275 1.34259 11.275 1.04167C11.275 0.740741 11.3616 0.491898 11.5347 0.295139C11.7079 0.0983798 11.9269 0 12.1917 0H20.1667C20.6556 0 21.0833 0.208333 21.45 0.625C21.8167 1.04167 22 1.52778 22 2.08333V22.9167C22 23.4722 21.8167 23.9583 21.45 24.375C21.0833 24.7917 20.6556 25 20.1667 25H12.1917Z" fill="white"/>
</svg>
