<?xml version="1.0" encoding="UTF-8" standalone="no"?>
<!-- Uploaded to: SVG Repo, www.svgrepo.com, Generator: SVG Repo Mixer Tools -->

<svg
   width="400"
   height="400"
   viewBox="0 0 8 8"
   fill="none"
   version="1.1"
   id="svg4"
   sodipodi:docname="google.svg"
   inkscape:version="1.1.1 (3bf5ae0d25, 2021-09-20)"
   xmlns:inkscape="http://www.inkscape.org/namespaces/inkscape"
   xmlns:sodipodi="http://sodipodi.sourceforge.net/DTD/sodipodi-0.dtd"
   xmlns="http://www.w3.org/2000/svg"
   xmlns:svg="http://www.w3.org/2000/svg">
  <defs
     id="defs8" />
  <sodipodi:namedview
     id="namedview6"
     pagecolor="#ffffff"
     bordercolor="#666666"
     borderopacity="1.0"
     inkscape:pageshadow="2"
     inkscape:pageopacity="0.0"
     inkscape:pagecheckerboard="0"
     showgrid="false"
     inkscape:zoom="0.5975"
     inkscape:cx="317.99163"
     inkscape:cy="400"
     inkscape:window-width="1920"
     inkscape:window-height="1027"
     inkscape:window-x="-8"
     inkscape:window-y="22"
     inkscape:window-maximized="1"
     inkscape:current-layer="svg4" />
  <path
     fill="#000000"
     d="M 5.6458183,2.1830701 A 2.224328,2.1924899 0 0 0 4.0806149,1.5830924 c -1.064918,0 -1.9692578,0.7045452 -2.2915738,1.6519385 a 2.4173697,2.3827685 0 0 0 0,1.5313716 h 0.00174 c 0.3234753,0.946822 1.226076,1.6507958 2.290994,1.6507958 0.5495603,0 1.0208604,-0.1377092 1.3866543,-0.3811287 v -0.00114 A 1.8776644,1.8507883 0 0 0 6.2840735,4.8195434 H 4.0806149 V 3.2801721 h 3.849241 c 0.047536,0.2674186 0.070144,0.5405513 0.070144,0.8125412 0,1.2165262 -0.4434743,2.2450594 -1.2150616,2.9416049 l 5.797e-4,5.714e-4 C 6.1095823,7.645724 5.1808949,7.9999965 4.0806149,7.9999965 a 4.0834418,4.0249931 0 0 1 -3.64634433,-2.2027752 4.0405436,3.982709 0 0 1 0,-3.5924377 A 4.0822824,4.0238503 0 0 1 4.0800352,2.9419202e-4 3.9338779,3.87757 0 0 1 6.8104456,1.0408269 Z"
     id="path2"
     style="stroke-width:0.575541;fill:#ffffff;fill-opacity:1" />
</svg>
