<?xml version="1.0" encoding="UTF-8" standalone="no"?>
<svg
   height="37"
   width="37"
   version="1.1"
   id="svg4"
   sodipodi:docname="key.svg"
   inkscape:version="1.1.1 (3bf5ae0d25, 2021-09-20)"
   xmlns:inkscape="http://www.inkscape.org/namespaces/inkscape"
   xmlns:sodipodi="http://sodipodi.sourceforge.net/DTD/sodipodi-0.dtd"
   xmlns="http://www.w3.org/2000/svg"
   xmlns:svg="http://www.w3.org/2000/svg">
  <defs
     id="defs8" />
  <sodipodi:namedview
     id="namedview6"
     pagecolor="#ffff15"
     bordercolor="#666666"
     borderopacity="1.0"
     inkscape:pageshadow="2"
     inkscape:pageopacity="0"
     inkscape:pagecheckerboard="0"
     showgrid="false"
     inkscape:zoom="9.9583333"
     inkscape:cx="14.158996"
     inkscape:cy="24"
     inkscape:window-width="1920"
     inkscape:window-height="1027"
     inkscape:window-x="-8"
     inkscape:window-y="22"
     inkscape:window-maximized="1"
     inkscape:current-layer="svg4" />
  <path
     d="m 14.65631,27.035643 q -1.005824,1.025743 -2.442718,1.025743 -1.436893,0 -2.442718,-1.025743 -1.005825,-1.025743 -1.005825,-2.491089 0,-1.465347 1.005825,-2.491089 1.005825,-1.025743 2.442718,-1.025743 1.436894,0 2.442718,1.025743 1.005826,1.025742 1.005826,2.491089 0,1.465346 -1.005826,2.491089 z m 6.178642,6.30099 Q 17.242719,37 12.213592,37 7.184466,37 3.5922331,33.336633 5.0000001e-8,29.673267 5.0000001e-8,24.544554 q 0,-5.128713 3.592233049999999,-8.792079 2.5864079,-2.637624 5.7475729,-3.370297 3.161165,-0.732673 6.753398,0.659406 L 28.881554,-1.5e-7 H 37 l -0.502912,11.72277215 -5.460194,0.879208 -0.862136,5.568317 -4.849515,0.549505 -1.832039,1.868316 q 1.257282,3.113862 0.718447,6.484159 -0.538835,3.370297 -3.376699,6.264356 z m -2.15534,-2.198019 q 2.083495,-2.124753 2.460679,-5.330198 0.377185,-3.205446 -1.275242,-5.916337 l 4.095145,-4.176238 3.556311,-0.329702 0.898058,-5.5316836 5.172816,-0.7326733 0.215534,-6.0079208 H 30.138836 L 16.775728,16.741583 q -2.442718,-1.611881 -5.621844,-1.337128 -3.179127,0.274753 -5.406311,2.54604 -2.6941748,2.747524 -2.6941748,6.594059 0,3.846534 2.6941748,6.59406 2.694175,2.747524 6.466019,2.747524 3.771845,0 6.46602,-2.747524 z"
     id="path2"
     style="fill:#ffffff;fill-opacity:1;stroke-width:1.02605" />
</svg>
