<svg width="50" height="40" viewBox="0 0 50 40" fill="none" xmlns="http://www.w3.org/2000/svg">
<path d="M3.75 40C2.75 40 1.875 39.625 1.125 38.875C0.375 38.125 0 37.25 0 36.25V3.75C0 2.75 0.375 1.875 1.125 1.125C1.875 0.374999 2.75 0 3.75 0H46.25C47.25 0 48.125 0.374999 48.875 1.125C49.625 1.875 50 2.75 50 3.75V36.25C50 37.25 49.625 38.125 48.875 38.875C48.125 39.625 47.25 40 46.25 40H3.75ZM25 20.75C25.2083 20.75 25.3854 20.7188 25.5312 20.6562C25.6771 20.5938 25.8333 20.5208 26 20.4375L45.625 7.625C45.8333 7.5 45.9896 7.33333 46.0938 7.125C46.1979 6.91667 46.25 6.6875 46.25 6.4375C46.25 5.89583 46.0104 5.46875 45.5312 5.15625C45.0521 4.84375 44.5625 4.85417 44.0625 5.1875L25 17.375L6 5.1875C5.5 4.85417 5 4.83333 4.5 5.125C4 5.41667 3.75 5.83333 3.75 6.375C3.75 6.625 3.8125 6.86458 3.9375 7.09375C4.0625 7.32292 4.20833 7.5 4.375 7.625L24 20.4375C24.1667 20.5208 24.3229 20.5938 24.4688 20.6562C24.6146 20.7188 24.7917 20.75 25 20.75Z" fill="white"/>
</svg>
