<?xml version="1.0" encoding="UTF-8" standalone="no"?>
<svg
   height="39.950001"
   width="40.049999"
   version="1.1"
   id="svg4"
   sodipodi:docname="mission.svg"
   inkscape:version="1.1.1 (3bf5ae0d25, 2021-09-20)"
   xmlns:inkscape="http://www.inkscape.org/namespaces/inkscape"
   xmlns:sodipodi="http://sodipodi.sourceforge.net/DTD/sodipodi-0.dtd"
   xmlns="http://www.w3.org/2000/svg"
   xmlns:svg="http://www.w3.org/2000/svg">
  <defs
     id="defs8" />
  <sodipodi:namedview
     id="namedview6"
     pagecolor="#ffffff"
     bordercolor="#666666"
     borderopacity="1.0"
     inkscape:pageshadow="2"
     inkscape:pageopacity="0.0"
     inkscape:pagecheckerboard="0"
     showgrid="false"
     inkscape:zoom="9.9583333"
     inkscape:cx="19.079498"
     inkscape:cy="24"
     inkscape:window-width="1920"
     inkscape:window-height="1027"
     inkscape:window-x="-8"
     inkscape:window-y="22"
     inkscape:window-maximized="1"
     inkscape:current-layer="svg4" />
  <path
     d="m 25.65,32.050001 q 0.6,0 1.05,-0.45 0.45,-0.45 0.45,-1.05 0,-0.6 -0.45,-1.05 -0.45,-0.45 -1.05,-0.45 -0.6,0 -1.05,0.45 -0.45,0.45 -0.45,1.05 0,0.6 0.45,1.05 0.45,0.45 1.05,0.45 z m 5,0 q 0.6,0 1.05,-0.45 0.45,-0.45 0.45,-1.05 0,-0.6 -0.45,-1.05 -0.45,-0.45 -1.05,-0.45 -0.6,0 -1.05,0.45 -0.45,0.45 -0.45,1.05 0,0.6 0.45,1.05 0.45,0.45 1.05,0.45 z m 5,0 q 0.6,0 1.05,-0.45 0.45,-0.45 0.45,-1.05 0,-0.6 -0.45,-1.05 -0.45,-0.45 -1.05,-0.45 -0.6,0 -1.05,0.45 -0.45,0.45 -0.45,1.05 0,0.6 0.45,1.05 0.45,0.45 1.05,0.45 z m -32.6500004,3.95 q -1.25,0 -2.12499998,-0.875 Q -3.8146973e-7,34.25 -3.8146973e-7,33 V 3.0000003 q 0,-1.25 0.87500000146973,-2.12500004 Q 1.7499996,2.6293945e-7 2.9999996,2.6293945e-7 H 33 q 1.25,0 2.125,0.87499999706055 Q 36,1.7500003 36,3.0000003 V 19.450001 q -0.7,-0.4 -1.475,-0.65 -0.775,-0.25 -1.525,-0.4 V 3.0000003 H 2.9999996 V 33 H 18.45 q 0.2,0.8 0.45,1.55 0.25,0.75 0.6,1.45 z m 0,-5.35 v 2.35 -30.0000007 15.4000007 -0.2 z m 5,-2.65 H 18.55 q 0.2,-0.8 0.45,-1.55 0.25,-0.75 0.65,-1.45 H 7.9999996 Z m 0,-8.5 H 25.2 q 0.7,-0.35 1.35,-0.575 0.65,-0.225 1.45,-0.425 v -2 H 7.9999996 Z m 0,-8.5 H 28 V 8.0000003 H 7.9999996 Z M 30.65,39.950001 q -3.9,0 -6.65,-2.775 -2.75,-2.775 -2.75,-6.575 0,-3.9 2.75,-6.675 2.75,-2.775 6.65,-2.775 3.85,0 6.625,2.775 2.775,2.775 2.775,6.675 0,3.8 -2.775,6.575 -2.775,2.775 -6.625,2.775 z"
     id="path2" />
</svg>
