<svg width="28" height="15" viewBox="0 0 28 15" fill="none" xmlns="http://www.w3.org/2000/svg">
<path d="M2.22727 15C1.95152 15 1.72348 14.905 1.54318 14.7149C1.36288 14.5249 1.27273 14.2926 1.27273 14.0181C1.27273 13.7436 1.36818 13.5166 1.55909 13.3371C1.75 13.1576 1.98333 13.0679 2.25909 13.0679H25.7727C26.0485 13.0679 26.2765 13.1576 26.4568 13.3371C26.6371 13.5166 26.7273 13.7436 26.7273 14.0181C26.7273 14.2926 26.6318 14.5249 26.4409 14.7149C26.25 14.905 26.0167 15 25.7409 15H2.22727ZM1.87727 6.60633C1.70758 6.50075 1.59091 6.35294 1.52727 6.1629C1.46364 5.97285 1.48485 5.79336 1.59091 5.62443L2.48182 4.10407H0.7C0.509091 4.10407 0.344697 4.03545 0.206818 3.89819C0.0689394 3.76094 0 3.58673 0 3.37557C0 3.18552 0.0689394 3.02187 0.206818 2.88462C0.344697 2.74736 0.519697 2.67873 0.731818 2.67873H2.48182L1.59091 1.15837C1.48485 0.989442 1.45833 0.809955 1.51136 0.619909C1.56439 0.429864 1.67576 0.282051 1.84545 0.176471C2.01515 0.0708899 2.19545 0.0497736 2.38636 0.113122C2.57727 0.17647 2.72576 0.292609 2.83182 0.461538L3.69091 1.95023L4.55 0.461538C4.65606 0.250377 4.80455 0.12368 4.99545 0.0814477C5.18636 0.0392154 5.36667 0.0708899 5.53636 0.176471C5.70606 0.282051 5.81742 0.429864 5.87045 0.619909C5.92348 0.809955 5.89697 0.989442 5.79091 1.15837L4.9 2.67873H6.68182C6.87273 2.67873 7.03712 2.74736 7.175 2.88462C7.31288 3.02187 7.38182 3.18552 7.38182 3.37557C7.38182 3.58673 7.31288 3.76094 7.175 3.89819C7.03712 4.03545 6.87273 4.10407 6.68182 4.10407H4.9L5.79091 5.62443C5.89697 5.79336 5.92348 5.97813 5.87045 6.17873C5.81742 6.37934 5.70606 6.52187 5.53636 6.60633C5.36667 6.71192 5.18636 6.73303 4.99545 6.66968C4.80455 6.60633 4.65606 6.4902 4.55 6.32127L3.69091 4.83258L2.83182 6.32127C2.72576 6.53243 2.58258 6.65912 2.40227 6.70136C2.22197 6.74359 2.04697 6.71192 1.87727 6.60633ZM12.1545 6.57466C11.9848 6.46908 11.8735 6.31599 11.8205 6.11538C11.7674 5.91478 11.7939 5.73002 11.9 5.56109L12.7909 4.04072H11.0091C10.8182 4.04072 10.6538 3.9721 10.5159 3.83484C10.378 3.69759 10.3091 3.52338 10.3091 3.31222C10.3091 3.12217 10.378 2.95852 10.5159 2.82127C10.6538 2.68401 10.8288 2.61539 11.0409 2.61539H12.7909L11.9 1.09502C11.7939 0.926093 11.7674 0.746606 11.8205 0.556561C11.8735 0.366516 11.9848 0.218703 12.1545 0.113122C12.3242 0.00754128 12.5045 -0.0135751 12.6955 0.0497733C12.8864 0.113122 13.0348 0.229261 13.1409 0.39819L14 1.88688L14.8591 0.39819C14.9652 0.187028 15.1083 0.0603319 15.2886 0.0180996C15.4689 -0.0241327 15.6439 0.00754128 15.8136 0.113122C15.9833 0.218703 16.1 0.366516 16.1636 0.556561C16.2273 0.746606 16.2061 0.926093 16.1 1.09502L15.2091 2.61539H16.9909C17.1818 2.61539 17.3462 2.68401 17.4841 2.82127C17.622 2.95852 17.6909 3.12217 17.6909 3.31222C17.6909 3.52338 17.622 3.69759 17.4841 3.83484C17.3462 3.9721 17.1818 4.04072 16.9909 4.04072H15.2091L16.1 5.56109C16.2061 5.73002 16.2326 5.92006 16.1795 6.13122C16.1265 6.34238 16.0152 6.4902 15.8455 6.57466C15.6758 6.68024 15.4902 6.70664 15.2886 6.65385C15.0871 6.60106 14.9333 6.47964 14.8273 6.28959L14 4.83258L13.1727 6.28959C13.0667 6.45852 12.9129 6.57466 12.7114 6.63801C12.5098 6.70136 12.3242 6.68024 12.1545 6.57466ZM22.4636 6.57466C22.2939 6.46908 22.1826 6.31599 22.1295 6.11538C22.0765 5.91478 22.103 5.73002 22.2091 5.56109L23.1 4.04072H21.3182C21.1273 4.04072 20.9629 3.9721 20.825 3.83484C20.6871 3.69759 20.6182 3.52338 20.6182 3.31222C20.6182 3.12217 20.6871 2.95852 20.825 2.82127C20.9629 2.68401 21.1379 2.61539 21.35 2.61539H23.1L22.2091 1.09502C22.103 0.926093 22.0765 0.746606 22.1295 0.556561C22.1826 0.366516 22.2939 0.218703 22.4636 0.113122C22.6333 0.00754128 22.8136 -0.0135751 23.0045 0.0497733C23.1955 0.113122 23.3439 0.229261 23.45 0.39819L24.3091 1.88688L25.1682 0.39819C25.2742 0.187028 25.4121 0.0603319 25.5818 0.0180996C25.7515 -0.0241327 25.9318 0.00754128 26.1227 0.113122C26.2924 0.218703 26.4091 0.366516 26.4727 0.556561C26.5364 0.746606 26.5152 0.926093 26.4091 1.09502L25.5182 2.61539H27.3C27.4909 2.61539 27.6553 2.68401 27.7932 2.82127C27.9311 2.95852 28 3.12217 28 3.31222C28 3.52338 27.9311 3.69759 27.7932 3.83484C27.6553 3.9721 27.4909 4.04072 27.3 4.04072H25.5182L26.4091 5.56109C26.5152 5.73002 26.5417 5.92006 26.4886 6.13122C26.4356 6.34238 26.3242 6.4902 26.1545 6.57466C25.9848 6.68024 25.7992 6.70664 25.5977 6.65385C25.3962 6.60106 25.2424 6.47964 25.1364 6.28959L24.3091 4.83258L23.4818 6.28959C23.3758 6.45852 23.222 6.57466 23.0205 6.63801C22.8189 6.70136 22.6333 6.68024 22.4636 6.57466Z" fill="white"/>
</svg>
