<svg width="20" height="20" viewBox="0 0 20 20" fill="none" xmlns="http://www.w3.org/2000/svg">
<path d="M10 9.66184C8.625 9.66184 7.5 9.21095 6.625 8.30918C5.75 7.40741 5.3125 6.24799 5.3125 4.83092C5.3125 3.41385 5.75 2.25443 6.625 1.35266C7.5 0.450886 8.625 0 10 0C11.375 0 12.5 0.450886 13.375 1.35266C14.25 2.25443 14.6875 3.41385 14.6875 4.83092C14.6875 6.24799 14.25 7.40741 13.375 8.30918C12.5 9.21095 11.375 9.66184 10 9.66184ZM1.875 20C1.35417 20 0.911458 19.8121 0.546875 19.4364C0.182292 19.0607 0 18.6044 0 18.0676V16.9726C0 16.1567 0.197917 15.4589 0.59375 14.8792C0.989583 14.2995 1.5 13.8594 2.125 13.5588C3.52083 12.9147 4.85938 12.4316 6.14063 12.1095C7.42188 11.7874 8.70833 11.6264 10 11.6264C11.2917 11.6264 12.5729 11.7928 13.8438 12.1256C15.1146 12.4584 16.4479 12.9361 17.8438 13.5588C18.4896 13.8594 19.0104 14.2995 19.4062 14.8792C19.8021 15.4589 20 16.1567 20 16.9726V18.0676C20 18.6044 19.8177 19.0607 19.4531 19.4364C19.0885 19.8121 18.6458 20 18.125 20H1.875Z" fill="white"/>
</svg>
