<svg width="59" height="42" viewBox="0 0 59 42" fill="none" xmlns="http://www.w3.org/2000/svg">
<path d="M34.6667 12.8C34.6667 12.5333 34.7556 12.2778 34.9333 12.0333C35.1111 11.7889 35.3111 11.6222 35.5333 11.5333C36.8667 11.0444 38.2333 10.6667 39.6333 10.4C41.0333 10.1333 42.4889 10 44 10C44.9778 10 45.9333 10.0556 46.8667 10.1667C47.8 10.2778 48.7111 10.4444 49.6 10.6667C49.8667 10.7556 50.1111 10.9222 50.3333 11.1667C50.5556 11.4111 50.6667 11.6889 50.6667 12C50.6667 12.4889 50.5 12.8667 50.1667 13.1333C49.8333 13.4 49.4222 13.4667 48.9333 13.3333C48.1778 13.1111 47.3889 12.9444 46.5667 12.8333C45.7444 12.7222 44.8889 12.6667 44 12.6667C42.7111 12.6667 41.4667 12.7889 40.2667 13.0333C39.0667 13.2778 37.8889 13.6444 36.7333 14.1333C36.1111 14.3556 35.6111 14.3444 35.2333 14.1C34.8556 13.8556 34.6667 13.4222 34.6667 12.8ZM34.6667 27.4667C34.6667 27.2 34.7556 26.9333 34.9333 26.6667C35.1111 26.4 35.3111 26.2222 35.5333 26.1333C36.8667 25.6444 38.2333 25.2778 39.6333 25.0333C41.0333 24.7889 42.4889 24.6667 44 24.6667C44.9778 24.6667 45.9333 24.7222 46.8667 24.8333C47.8 24.9444 48.7111 25.1111 49.6 25.3333C49.8667 25.4222 50.1111 25.5889 50.3333 25.8333C50.5556 26.0778 50.6667 26.3556 50.6667 26.6667C50.6667 27.1556 50.5 27.5333 50.1667 27.8C49.8333 28.0667 49.4222 28.1333 48.9333 28C48.1778 27.7778 47.3889 27.6111 46.5667 27.5C45.7444 27.3889 44.8889 27.3333 44 27.3333C42.7111 27.3333 41.4667 27.4444 40.2667 27.6667C39.0667 27.8889 37.8889 28.2444 36.7333 28.7333C36.1111 28.9556 35.6111 28.9556 35.2333 28.7333C34.8556 28.5111 34.6667 28.0889 34.6667 27.4667ZM34.6667 20.1333C34.6667 19.8667 34.7556 19.6111 34.9333 19.3667C35.1111 19.1222 35.3111 18.9556 35.5333 18.8667C36.8667 18.3778 38.2333 18 39.6333 17.7333C41.0333 17.4667 42.4889 17.3333 44 17.3333C44.9778 17.3333 45.9333 17.3889 46.8667 17.5C47.8 17.6111 48.7111 17.7778 49.6 18C49.8667 18.0889 50.1111 18.2556 50.3333 18.5C50.5556 18.7444 50.6667 19.0222 50.6667 19.3333C50.6667 19.8222 50.5 20.2 50.1667 20.4667C49.8333 20.7333 49.4222 20.8 48.9333 20.6667C48.1778 20.4444 47.3889 20.2778 46.5667 20.1667C45.7444 20.0556 44.8889 20 44 20C42.7111 20 41.4667 20.1222 40.2667 20.3667C39.0667 20.6111 37.8889 20.9778 36.7333 21.4667C36.1111 21.6889 35.6111 21.6778 35.2333 21.4333C34.8556 21.1889 34.6667 20.7556 34.6667 20.1333ZM31.4667 36.6667C33.6889 35.5556 35.8667 34.7222 38 34.1667C40.1333 33.6111 42.4 33.3333 44.8 33.3333C46.4889 33.3333 48.2333 33.4667 50.0333 33.7333C51.8333 34 53.3778 34.3556 54.6667 34.8V6.2C53.1556 5.44444 51.5556 4.88889 49.8667 4.53333C48.1778 4.17778 46.4889 4 44.8 4C42.4 4 40.0778 4.36667 37.8333 5.1C35.5889 5.83333 33.4667 6.86667 31.4667 8.2V36.6667ZM29.4667 41.9333C29.1111 41.9333 28.7889 41.9 28.5 41.8333C28.2111 41.7667 27.9556 41.6444 27.7333 41.4667C25.6444 40.1778 23.4222 39.1778 21.0667 38.4667C18.7111 37.7556 16.3111 37.4 13.8667 37.4C12.2222 37.4 10.6222 37.6 9.06667 38C7.51111 38.4 5.95556 38.8889 4.4 39.4667C3.37778 39.9556 2.38889 39.8889 1.43333 39.2667C0.477778 38.6444 0 37.7556 0 36.6V5.73333C0 5.06667 0.155555 4.45556 0.466667 3.9C0.777778 3.34444 1.24444 2.91111 1.86667 2.6C3.73333 1.71111 5.67778 1.05556 7.7 0.633334C9.72222 0.211112 11.7778 0 13.8667 0C16.6667 0 19.3889 0.377778 22.0333 1.13333C24.6778 1.88889 27.1556 3.04444 29.4667 4.6C31.7333 3.04444 34.1667 1.88889 36.7667 1.13333C39.3667 0.377778 42.0444 0 44.8 0C46.8889 0 48.9333 0.211112 50.9333 0.633334C52.9333 1.05556 54.8667 1.71111 56.7333 2.6C57.3556 2.91111 57.8333 3.34444 58.1667 3.9C58.5 4.45556 58.6667 5.06667 58.6667 5.73333V36.6C58.6667 37.8444 58.1667 38.7889 57.1667 39.4333C56.1667 40.0778 55.1778 40.0889 54.2 39.4667C52.6889 38.8444 51.1556 38.3444 49.6 37.9667C48.0444 37.5889 46.4444 37.4 44.8 37.4C42.4 37.4 40.0444 37.7556 37.7333 38.4667C35.4222 39.1778 33.2444 40.1778 31.2 41.4667C30.9778 41.6444 30.7222 41.7667 30.4333 41.8333C30.1444 41.9 29.8222 41.9333 29.4667 41.9333Z" fill="white"/>
</svg>
