<?xml version="1.0" encoding="UTF-8" standalone="no"?>
<svg
   height="35.150002"
   width="42.349998"
   version="1.1"
   id="svg4"
   sodipodi:docname="3.svg"
   inkscape:version="1.1.1 (3bf5ae0d25, 2021-09-20)"
   xmlns:inkscape="http://www.inkscape.org/namespaces/inkscape"
   xmlns:sodipodi="http://sodipodi.sourceforge.net/DTD/sodipodi-0.dtd"
   xmlns="http://www.w3.org/2000/svg"
   xmlns:svg="http://www.w3.org/2000/svg">
  <defs
     id="defs8" />
  <sodipodi:namedview
     id="namedview6"
     pagecolor="#ffffff"
     bordercolor="#666666"
     borderopacity="1.0"
     inkscape:pageshadow="2"
     inkscape:pageopacity="0.0"
     inkscape:pagecheckerboard="0"
     showgrid="false"
     inkscape:zoom="9.9583333"
     inkscape:cx="19.079498"
     inkscape:cy="24"
     inkscape:window-width="1920"
     inkscape:window-height="1027"
     inkscape:window-x="-8"
     inkscape:window-y="22"
     inkscape:window-maximized="1"
     inkscape:current-layer="svg4" />
  <path
     d="m 40.849999,27.450001 q -0.65,0 -1.075,-0.425 -0.425,-0.425 -0.425,-1.075 v -12.6 l -17.6,9.5 q -0.35,0.2 -0.7,0.275 -0.35,0.075 -0.75,0.075 -0.4,0 -0.725,-0.075 -0.325,-0.075 -0.675,-0.275 l -18.14999976,-9.95 q -0.4,-0.2 -0.575,-0.55 -0.17500000293945,-0.35 -0.17500000293945,-0.75 0,-0.4 0.17500000293945,-0.75 0.175,-0.35 0.575,-0.55 L 18.849999,0.40000076 q 0.35,-0.2 0.7,-0.3 0.35,-0.0999999970605 0.75,-0.0999999970605 0.4,0 0.75,0.0999999970605 0.35,0.1 0.7,0.3 l 19.8,10.75000024 q 0.4,0.25 0.6,0.6 0.2,0.35 0.2,0.75 v 13.45 q 0,0.65 -0.425,1.075 -0.425,0.425 -1.075,0.425 z m -20.55,7.7 q -0.4,0 -0.75,-0.075 -0.35,-0.075 -0.7,-0.275 l -11.4999998,-6.3 q -0.7,-0.4 -1.125,-1.1 -0.425,-0.7 -0.425,-1.55 v -8.7 l 12.4499998,6.8 1,0.5 q 0.5,0.25 1.05,0.25 0.55,0 1.075,-0.25 0.525,-0.25 1.025,-0.5 l 12.4,-6.8 v 8.7 q 0,0.85 -0.425,1.55 -0.425,0.7 -1.125,1.1 l -11.5,6.3 q -0.35,0.2 -0.7,0.275 -0.35,0.075 -0.75,0.075 z"
     id="path2"
     style="fill:#ffffff;fill-opacity:1" />
</svg>
