<?xml version="1.0" encoding="UTF-8" standalone="no"?>
<svg
   height="36"
   width="36"
   version="1.1"
   id="svg4"
   sodipodi:docname="5.svg"
   inkscape:version="1.1.1 (3bf5ae0d25, 2021-09-20)"
   xmlns:inkscape="http://www.inkscape.org/namespaces/inkscape"
   xmlns:sodipodi="http://sodipodi.sourceforge.net/DTD/sodipodi-0.dtd"
   xmlns="http://www.w3.org/2000/svg"
   xmlns:svg="http://www.w3.org/2000/svg">
  <defs
     id="defs8" />
  <sodipodi:namedview
     id="namedview6"
     pagecolor="#ffffff"
     bordercolor="#666666"
     borderopacity="1.0"
     inkscape:pageshadow="2"
     inkscape:pageopacity="0.0"
     inkscape:pagecheckerboard="0"
     showgrid="false"
     inkscape:zoom="9.9583333"
     inkscape:cx="19.079498"
     inkscape:cy="24"
     inkscape:window-width="1920"
     inkscape:window-height="1027"
     inkscape:window-x="-8"
     inkscape:window-y="22"
     inkscape:window-maximized="1"
     inkscape:current-layer="svg4" />
  <path
     d="m 13.5,25.65 q -0.45,-0.45 -0.45,-1.1 0,-0.65 0.45,-1.05 l 4,-4 H 1.5 Q 0.85,19.5 0.425,19.075 0,18.65 0,18 0,17.35 0.425,16.925 0.85,16.5 1.5,16.5 h 15.9 l -4.05,-4.05 q -0.4,-0.4 -0.4,-1.025 0,-0.625 0.45,-1.075 0.45,-0.45 1.075,-0.45 0.625,0 1.075,0.45 L 22.2,17 q 0.25,0.25 0.35,0.5 0.1,0.25 0.1,0.55 0,0.3 -0.1,0.55 -0.1,0.25 -0.35,0.5 l -6.6,6.6 q -0.4,0.4 -1.025,0.4 -0.625,0 -1.075,-0.45 z M 19.95,36 Q 19.3,36 18.875,35.575 18.45,35.15 18.45,34.5 q 0,-0.65 0.425,-1.075 Q 19.3,33 19.95,33 H 33 V 3 H 19.95 Q 19.3,3 18.875,2.575 18.45,2.15 18.45,1.5 18.45,0.85 18.875,0.425 19.3,0 19.95,0 H 33 Q 34.2,0 35.1,0.9 36,1.8 36,3 v 30 q 0,1.2 -0.9,2.1 Q 34.2,36 33,36 Z"
     id="path2"
     style="fill:#ffffff;fill-opacity:1" />
</svg>
