<?xml version="1.0" encoding="UTF-8" standalone="no"?>
<svg
   height="32"
   width="32.375999"
   version="1.1"
   id="svg4"
   sodipodi:docname="6.svg"
   inkscape:version="1.1.1 (3bf5ae0d25, 2021-09-20)"
   xmlns:inkscape="http://www.inkscape.org/namespaces/inkscape"
   xmlns:sodipodi="http://sodipodi.sourceforge.net/DTD/sodipodi-0.dtd"
   xmlns="http://www.w3.org/2000/svg"
   xmlns:svg="http://www.w3.org/2000/svg">
  <defs
     id="defs8" />
  <sodipodi:namedview
     id="namedview6"
     pagecolor="#ffffff"
     bordercolor="#666666"
     borderopacity="1.0"
     inkscape:pageshadow="2"
     inkscape:pageopacity="0.0"
     inkscape:pagecheckerboard="0"
     showgrid="false"
     inkscape:zoom="9.9583333"
     inkscape:cx="19.079498"
     inkscape:cy="24"
     inkscape:window-width="1920"
     inkscape:window-height="1027"
     inkscape:window-x="-8"
     inkscape:window-y="22"
     inkscape:window-maximized="1"
     inkscape:current-layer="svg4" />
  <path
     d="m 3.2997644,32 q -1.4,0 -2.34999997,-0.95 -0.94999999878,-0.95 -0.94999999878,-2.35 0,-1.4 0.94999999878,-2.35 0.94999997,-0.95 2.34999997,-0.95 1.4,0 2.35,0.95 0.95,0.95 0.95,2.35 0,1.4 -0.95,2.35 -0.95,0.95 -2.35,0.95 z m 0,-12.7 q -1.4,0 -2.34999997,-0.95 Q -2.3556878e-4,17.4 -2.3556878e-4,16 q 0,-1.4 0.94999999878,-2.35 0.94999997,-0.95 2.34999997,-0.95 1.4,0 2.35,0.95 0.95,0.95 0.95,2.35 0,1.4 -0.95,2.35 -0.95,0.95 -2.35,0.95 z m 0,-12.7 q -1.4,0 -2.34999997,-0.95 Q -2.3556878e-4,4.7 -2.3556878e-4,3.3 q 0,-1.4 0.94999999878,-2.35 Q 1.8997644,0 3.2997644,0 q 1.4,0 2.35,0.95 0.95,0.95 0.95,2.35 0,1.4 -0.95,2.35 -0.95,0.95 -2.35,0.95 z M 15.999764,19.3 q -1.4,0 -2.35,-0.95 -0.95,-0.95 -0.95,-2.35 0,-1.4 0.95,-2.35 0.95,-0.95 2.35,-0.95 1.4,0 2.35,0.95 0.95,0.95 0.95,2.35 z m 0,-12.7 q -1.4,0 -2.35,-0.95 -0.95,-0.95 -0.95,-2.35 0,-1.4 0.95,-2.35 0.95,-0.95 2.35,-0.95 1.4,0 2.35,0.95 0.95,0.95 0.95,2.35 0,1.4 -0.95,2.35 -0.95,0.95 -2.35,0.95 z m -1.25,25.4 q -0.3,0 -0.525,-0.225 -0.225,-0.225 -0.225,-0.525 v -2.2 q 0,-0.1 0.2,-0.5 l 11.95,-11.95 3.25,3.25 -11.95,11.95 q -0.1,0.1 -0.5,0.2 z m 13.95,-25.4 q -1.4,0 -2.35,-0.95 -0.95,-0.95 -0.95,-2.35 0,-1.4 0.95,-2.35 0.95,-0.95 2.35,-0.95 1.4,0 2.35,0.95 0.95,0.95 0.95,2.35 0,1.4 -0.95,2.35 -0.95,0.95 -2.35,0.95 z m 2,11.95 -3.25,-3.25 1.25,-1.25 q 0.4,-0.4 1,-0.425 0.6,-0.025 1,0.375 l 1.3,1.3 q 0.4,0.4 0.375,1 -0.025,0.6 -0.425,1 z"
     id="path2"
     style="fill:#ffffff;fill-opacity:1" />
</svg>
