<?xml version="1.0" encoding="UTF-8" standalone="no"?>
<!-- Uploaded to: SVG Repo, www.svgrepo.com, Generator: SVG Repo Mixer Tools -->

<svg
   fill="#000000"
   version="1.1"
   id="Layer_1"
   viewBox="0 0 18.323 15.421"
   xml:space="preserve"
   sodipodi:docname="8.svg"
   width="18.323"
   height="15.421"
   inkscape:version="1.1.1 (3bf5ae0d25, 2021-09-20)"
   xmlns:inkscape="http://www.inkscape.org/namespaces/inkscape"
   xmlns:sodipodi="http://sodipodi.sourceforge.net/DTD/sodipodi-0.dtd"
   xmlns="http://www.w3.org/2000/svg"
   xmlns:svg="http://www.w3.org/2000/svg"><defs
   id="defs11" /><sodipodi:namedview
   id="namedview9"
   pagecolor="#ffffff"
   bordercolor="#666666"
   borderopacity="1.0"
   inkscape:pageshadow="2"
   inkscape:pageopacity="0.0"
   inkscape:pagecheckerboard="0"
   showgrid="false"
   inkscape:zoom="19.916667"
   inkscape:cx="9.539749"
   inkscape:cy="12"
   inkscape:window-width="1920"
   inkscape:window-height="1027"
   inkscape:window-x="-8"
   inkscape:window-y="22"
   inkscape:window-maximized="1"
   inkscape:current-layer="Layer_1" />
<style
   type="text/css"
   id="style2">
	.st0{fill:none;}
</style>
<path
   d="M 17.151777,0.12444549 0.85177703,6.4244455 c -1.1,0.4 -1.1,1.1 -0.2,1.3 l 4.09999997,1.3 1.6,4.7999995 c 0.2,0.5 0.1,0.7 0.6,0.7 0.4,0 0.6,-0.2 0.8,-0.4 0.1,-0.1 1,-1 2,-2 l 4.2,3.1 c 0.8,0.4 1.3,0.2 1.5,-0.7 l 2.8,-13.0999995 c 0.3,-1.10000001 -0.4,-1.70000001 -1.1,-1.30000001 z m -2.1,3.00000001 -7.8,7.0999995 -0.3,3.3 -1.6,-4.7999995 9.2,-5.8 c 0.4,-0.3 0.8,-0.1 0.5,0.2 z"
   id="path4"
   style="fill:#ffffff;fill-opacity:1" />
<rect
   y="0"
   class="st0"
   width="24"
   height="24"
   id="rect6"
   x="0" />
</svg>
